<?xml version="1.0" standalone="no"?><!DOCTYPE svg PUBLIC "-//W3C//DTD SVG 1.1//EN" "http://www.w3.org/Graphics/SVG/1.1/DTD/svg11.dtd"><svg class="icon" width="200px" height="200.00px" viewBox="0 0 1024 1024" version="1.1" xmlns="http://www.w3.org/2000/svg"><path d="M0 0h1024v1024H0z" fill="#FFFFFF" /><path d="M165 380.8m48 0l592 0q48 0 48 48l0 355.2q0 48-48 48l-592 0q-48 0-48-48l0-355.2q0-48 48-48Z" fill="#FFC95A" /><path d="M614.111 567.6V832h172V567.6c0-7.732-6.268-14-14-14h-144c-7.732 0-14 6.268-14 14z" fill="#FFFFFF" /><path d="M317.889 640a86 86.4 0 1 0 172 0 86 86.4 0 1 0-172 0Z" fill="#FFFFFF" /><path d="M805 380.8c26.51 0 48 21.49 48 48V784c0 26.51-21.49 48-48 48H213c-26.51 0-48-21.49-48-48V428.8c0-26.51 21.49-48 48-48h592z m0.476 19.2H213c-15.747 0-28.542 12.638-28.8 28.324V784c0 15.747 12.638 28.542 28.324 28.8H614.11V567.6c0-7.628 6.1-13.83 13.687-13.997l0.313-0.003h144c7.732 0 14 6.268 14 14v245.2H805c15.747 0 28.542-12.638 28.8-28.324V428.8c0-15.747-12.638-28.542-28.324-28.8z m-38.565 172.8h-133.6v240h133.6v-240zM403.889 544c52.808 0 95.6 42.99 95.6 96s-42.792 96-95.6 96c-52.809 0-95.6-42.99-95.6-96s42.791-96 95.6-96z m0 19.2c-42.185 0-76.4 34.375-76.4 76.8s34.215 76.8 76.4 76.8c42.184 0 76.4-34.375 76.4-76.8s-34.216-76.8-76.4-76.8z" fill="#30699A" /><path d="M685.612 207.999l54.207 225.573c-10.647 19.964-32.289 33.628-57.255 33.628-25.445 0-47.436-14.192-57.855-34.781-0.3 0.594-0.61 1.182-0.93 1.765L588.905 208h96.707z m-176.613 0V432.42l-0.315 0.614c-10.543 20.256-32.349 34.166-57.539 34.166-25.232 0-47.07-13.958-57.592-34.27L423.523 208h85.476z m-162.891 0l-66.855 227.498a60.686 60.686 0 0 1-1.671-3.078c-10.419 20.589-32.41 34.781-57.855 34.781-35.502 0-54.727-27.63-54.727-61.714 0-5.719 26.132-67.733 78.397-186.044A19.2 19.2 0 0 1 260.959 208l85.149-0.001z" fill="#E35E60" /><path d="M757.04 208a19.2 19.2 0 0 1 17.563 11.442C826.868 337.752 853 399.767 853 405.486c0 34.084-19.225 61.714-54.727 61.714-25.445 0-47.436-14.192-57.855-34.781l-0.155 0.3L683.428 208h73.613z m-156.086 0l24.014 224.924a60.5 60.5 0 0 1-0.259-0.505c-10.418 20.589-32.41 34.781-57.854 34.781-25.445 0-47.437-14.192-57.855-34.781V208h91.954z m-173.39 0l-33.058 226.698a60.62 60.62 0 0 1-1.215-2.28c-10.419 20.59-32.41 34.782-57.855 34.782-25.444 0-47.436-14.192-57.854-34.781a60.625 60.625 0 0 1-1.243 2.328L336.467 208h91.098z" fill="#FFFFFF" /><path d="M757.04 188.8H260.96a38.4 38.4 0 0 0-35.126 22.883l-6.156 13.95c-22.615 51.295-39.937 91.192-51.977 119.713l-3.546 8.427c-13.775 32.832-18.355 45.1-18.355 51.713 0 46.172 28.756 80.914 73.927 80.914l0.962-0.005c21.466-0.238 41.456-8.406 56.417-22.12l0.475-0.442 0.476 0.441c15.185 13.92 35.55 22.126 57.38 22.126l0.961-0.005c21.466-0.238 41.456-8.406 56.417-22.12l0.475-0.442 0.477 0.441c15.184 13.92 35.549 22.126 57.378 22.126l0.963-0.005c21.465-0.238 41.456-8.406 56.416-22.12l0.475-0.442 0.477 0.441c15.184 13.92 35.549 22.126 57.379 22.126l0.962-0.005c21.465-0.238 41.456-8.406 56.416-22.12l0.476-0.442 0.476 0.441c15.184 13.92 35.549 22.126 57.379 22.126l0.962-0.005c21.465-0.238 41.456-8.406 56.417-22.12l0.475-0.442 0.476 0.441c15.184 13.92 35.549 22.126 57.379 22.126 45.17 0 73.927-34.742 73.927-80.914 0-7.035-5.184-20.47-21.106-58.256l-3.7-8.746c-13.005-30.627-31.41-72.886-55.228-126.8a38.4 38.4 0 0 0-35.125-22.884z m0 19.2a19.2 19.2 0 0 1 17.563 11.442l6.147 13.927C828.917 342.624 853 399.996 853 405.486c0 34.084-19.225 61.714-54.727 61.714-25.445 0-47.436-14.192-57.855-34.781C730 453.008 708.008 467.2 682.564 467.2c-25.445 0-47.436-14.192-57.855-34.781-10.418 20.589-32.41 34.781-57.854 34.781-25.445 0-47.437-14.192-57.855-34.781-10.418 20.589-32.41 34.781-57.855 34.781-25.444 0-47.436-14.192-57.854-34.781-10.419 20.589-32.41 34.781-57.855 34.781-25.444 0-47.436-14.192-57.854-34.781-10.419 20.589-32.41 34.781-57.855 34.781-35.502 0-54.727-27.63-54.727-61.714 0-5.719 26.132-67.733 78.397-186.044A19.2 19.2 0 0 1 260.959 208h496.082z" fill="#30699A" /></svg>